# xmcd
#
# Track frame offsets: 
#        150
#        13925
#        33587
#        54295
#        74605
#        94352
#        113587
#        134472
#        153812
#        175275
#
# Disc length: 2520 seconds
#
# Revision: 3
# Processed by: cddbd v1.5.2PL0 Copyright (c) Steve Scherf et al.
# Submitted via: ExactAudioCopyFreeDBPlugin 1.0
#
DISCID=8509d60a
DTITLE=Roger Whittaker - Best Loved  
DYEAR=1990
DGENRE=Folk
TTITLE0=The Most Beautiful Girl
TTITLE1=She Believes in Me
TTITLE2=For I loved Her
TTITLE3=Love Me Tender
TTITLE4=Leaving On A Jet Plane
TTITLE5=For the Good Times
TTITLE6=Try To Remember
TTITLE7=Always On My Mind
TTITLE8=Honey
TTITLE9=Gentle On My Mind
EXTD=YEAR: 1990
EXTT0=
EXTT1=
EXTT2=
EXTT3=
EXTT4=
EXTT5=
EXTT6=
EXTT7=
EXTT8=
EXTT9=
PLAYORDER=
